<svg width="73" height="72" viewBox="0 0 73 72" fill="none" xmlns="http://www.w3.org/2000/svg">
<path d="M72.8105 36C72.8105 55.8823 56.6928 72 36.8105 72C16.9283 72 0.810547 55.8823 0.810547 36C0.810547 16.1177 16.9283 0 36.8105 0C56.6928 0 72.8105 16.1177 72.8105 36Z" fill="#68CA58" fill-opacity="0.2"/>
<path fill-rule="evenodd" clip-rule="evenodd" d="M31.6257 16.75C27.4706 16.75 24.09 20.1452 24.0901 24.3125C24.0901 28.4798 27.4707 31.875 31.6257 31.875C35.7808 31.875 39.1613 28.4798 39.1614 24.3125C39.1614 20.1452 35.7808 16.75 31.6257 16.75ZM31.6257 18.125C35.0347 18.125 37.7864 20.8853 37.7864 24.3125C37.7863 27.7397 35.0347 30.5 31.6257 30.5C28.2168 30.5 25.4651 27.7397 25.4651 24.3125C25.4651 20.8853 28.2167 18.125 31.6257 18.125ZM49.6699 24.6294C49.4876 24.6294 49.3127 24.7019 49.1838 24.8308C49.0549 24.9597 48.9824 25.1346 48.9824 25.3169V26.0205C48.7842 26.0893 48.5912 26.1659 48.4023 26.2568L47.9055 25.7627C47.7766 25.6338 47.6017 25.5614 47.4194 25.5614C47.2371 25.5614 47.0623 25.6338 46.9333 25.7627L45.4751 27.2209C45.3462 27.3499 45.2738 27.5247 45.2738 27.707C45.2738 27.8893 45.3462 28.0642 45.4751 28.1931L45.9719 28.6899C45.8802 28.8791 45.799 29.0713 45.7302 29.27H45.0293C44.847 29.27 44.6721 29.3425 44.5432 29.4714C44.4143 29.6003 44.3418 29.7752 44.3418 29.9575V32.02C44.3418 32.2024 44.4143 32.3772 44.5432 32.5061C44.6721 32.6351 44.847 32.7075 45.0293 32.7075H45.7329C45.801 32.9058 45.8783 33.0987 45.9692 33.2876L45.4751 33.7844C45.3462 33.9134 45.2738 34.0882 45.2738 34.2705C45.2738 34.4528 45.3462 34.6277 45.4751 34.7566L46.9333 36.2148C47.0623 36.3437 47.2371 36.4161 47.4194 36.4161C47.6017 36.4161 47.7766 36.3437 47.9055 36.2148L48.4023 35.718C48.5913 35.8101 48.784 35.8884 48.9824 35.957V36.6606C48.9824 36.843 49.0549 37.0178 49.1838 37.1468C49.3127 37.2757 49.4876 37.3481 49.6699 37.3481H51.7324C51.9148 37.3481 52.0896 37.2757 52.2185 37.1468C52.3475 37.0178 52.4199 36.843 52.4199 36.6606V35.957C52.6185 35.8883 52.8108 35.8092 53 35.718L53.4968 36.2148C53.6258 36.3437 53.8006 36.4161 53.9829 36.4161C54.1652 36.4161 54.3401 36.3437 54.469 36.2148L55.9272 34.7566C56.0561 34.6277 56.1285 34.4528 56.1285 34.2705C56.1285 34.0882 56.0561 33.9134 55.9272 33.7844L55.4304 33.2876C55.5222 33.0983 55.6034 32.9062 55.6721 32.7075H56.373C56.5554 32.7075 56.7302 32.6351 56.8592 32.5061C56.9881 32.3772 57.0605 32.2024 57.0605 32.02V29.9575C57.0605 29.7752 56.9881 29.6003 56.8592 29.4714C56.7302 29.3425 56.5554 29.27 56.373 29.27H55.6694C55.6013 29.0715 55.5215 28.8791 55.4304 28.6899L55.9272 28.1931C56.0561 28.0642 56.1285 27.8893 56.1285 27.707C56.1285 27.5247 56.0561 27.3499 55.9272 27.2209L54.469 25.7627C54.3401 25.6338 54.1652 25.5614 53.9829 25.5614C53.8006 25.5614 53.6258 25.6338 53.4968 25.7627L53 26.2595C52.8108 26.1674 52.6187 26.0866 52.4199 26.0178V25.3169C52.4199 25.1346 52.3475 24.9597 52.2185 24.8308C52.0896 24.7019 51.9148 24.6294 51.7324 24.6294H49.6699ZM50.3574 26.0044H51.0449V26.469C51.0447 26.6249 51.0974 26.7763 51.1945 26.8983C51.2916 27.0203 51.4273 27.1057 51.5793 27.1404C52.0127 27.2394 52.4275 27.4089 52.804 27.6453C52.9359 27.7279 53.0919 27.7633 53.2465 27.7457C53.4012 27.7282 53.5453 27.6587 53.6553 27.5486L53.9829 27.2209L54.469 27.707L54.1414 28.032C54.0313 28.142 53.9618 28.2861 53.9442 28.4407C53.9266 28.5954 53.9621 28.7514 54.0447 28.8833C54.28 29.2606 54.452 29.6741 54.5496 30.1079C54.5837 30.26 54.6684 30.3959 54.7899 30.4935C54.9114 30.5911 55.0624 30.6445 55.2183 30.645H55.6855V31.3325H55.2209C55.065 31.3323 54.9136 31.385 54.7916 31.4821C54.6697 31.5792 54.5843 31.7149 54.5496 31.8669C54.4508 32.3002 54.281 32.7151 54.0447 33.0916C53.9621 33.2234 53.9266 33.3795 53.9442 33.5341C53.9618 33.6888 54.0313 33.8329 54.1414 33.9429L54.469 34.2705L53.9829 34.7566L53.658 34.429C53.5479 34.3189 53.4038 34.2494 53.2492 34.2318C53.0946 34.2142 52.9385 34.2497 52.8066 34.3323C52.4295 34.5675 52.0157 34.737 51.582 34.8345C51.4295 34.8687 51.2932 34.9538 51.1956 35.0759C51.098 35.1979 51.0448 35.3496 51.0449 35.5059V35.9731H50.3574V35.5085C50.3577 35.3526 50.3049 35.2012 50.2078 35.0792C50.1107 34.9573 49.975 34.8719 49.823 34.8372C49.3897 34.7382 48.9748 34.5686 48.5984 34.3323C48.4668 34.2493 48.3109 34.2135 48.1563 34.2305C48.0017 34.2476 47.8574 34.3166 47.7471 34.4263L47.4194 34.7539L46.9333 34.2678L47.261 33.9402C47.3704 33.8304 47.4395 33.6868 47.4571 33.5327C47.4746 33.3786 47.4396 33.2232 47.3577 33.0916C47.1224 32.7144 46.9503 32.3008 46.8528 31.8669C46.8187 31.7149 46.7339 31.5789 46.6124 31.4813C46.491 31.3838 46.3399 31.3303 46.1841 31.3298H45.7168V30.6423H46.1814C46.3373 30.6426 46.4887 30.5898 46.6107 30.4927C46.7327 30.3956 46.8181 30.2599 46.8528 30.1079C46.9515 29.6746 47.1214 29.2598 47.3577 28.8833C47.4403 28.7514 47.4757 28.5954 47.4581 28.4407C47.4406 28.2861 47.3711 28.142 47.261 28.032L46.9333 27.7043L47.4194 27.2183L47.7444 27.5432C47.8541 27.6537 47.998 27.7237 48.1527 27.7418C48.3073 27.7598 48.4635 27.7249 48.5957 27.6426C48.9729 27.4073 49.3866 27.2352 49.8203 27.1377C49.9724 27.1036 50.1083 27.0189 50.2059 26.8974C50.3035 26.7759 50.3569 26.6248 50.3574 26.469V26.0044ZM50.7012 28.7249C49.4597 28.7249 48.4373 29.7471 48.4373 30.9888C48.4373 32.2303 49.4593 33.2527 50.7012 33.2527C51.943 33.2527 52.9651 32.2303 52.9651 30.9888C52.9651 29.7471 51.9427 28.7249 50.7012 28.7249ZM50.7012 30.0999C51.1917 30.0999 51.5901 30.4982 51.5901 30.9888C51.5901 31.4792 51.1913 31.8777 50.7012 31.8777C50.211 31.8777 49.8123 31.4792 49.8123 30.9888C49.8123 30.4982 50.2107 30.0999 50.7012 30.0999ZM27.5276 33.25C21.8246 33.25 17.2151 37.8813 17.2151 43.6028V49.8118C17.2151 50.1915 17.5229 50.4993 17.9026 50.4993H23.2012C23.3324 50.5395 23.4727 50.5395 23.604 50.4993H35.2271C35.309 50.2505 35.4311 50.0139 35.603 49.8037C35.0688 49.7501 34.5843 49.498 34.2388 49.1243H24.0901V43.5947C24.0915 43.5026 24.0745 43.4112 24.0399 43.3258C24.0053 43.2405 23.9539 43.1629 23.8888 43.0978C23.8237 43.0327 23.7461 42.9813 23.6607 42.9467C23.5754 42.9121 23.4839 42.895 23.3918 42.8965C23.3016 42.8979 23.2124 42.9171 23.1296 42.9529C23.0467 42.9888 22.9717 43.0406 22.9089 43.1054C22.846 43.1703 22.7966 43.2469 22.7633 43.3308C22.7301 43.4148 22.7137 43.5044 22.7151 43.5947V49.1243H18.5901V43.6028C18.5901 38.6162 22.5656 34.625 27.5276 34.625H35.7776C37.8467 34.625 39.7387 35.3262 41.248 36.4968C41.5921 36.1917 42.0325 36 42.5264 36H42.7654C40.9282 34.2971 38.4799 33.25 35.7776 33.25H27.5276ZM42.5264 37.3777C42.344 37.3777 42.1692 37.4501 42.0403 37.5791C41.9113 37.708 41.8389 37.8829 41.8389 38.0652V39.2925C41.4122 39.4245 41.0023 39.5939 40.6062 39.8L39.7415 38.9353C39.6125 38.8064 39.4377 38.734 39.2554 38.734C39.0731 38.734 38.8982 38.8064 38.7693 38.9353L36.6477 41.0569C36.5188 41.1858 36.4464 41.3607 36.4464 41.543C36.4464 41.7253 36.5188 41.9001 36.6477 42.0291L37.5125 42.8938C37.3053 43.2895 37.1352 43.7001 37.0022 44.1265H35.7776C35.5953 44.1265 35.4204 44.1989 35.2915 44.3279C35.1625 44.4568 35.0901 44.6316 35.0901 44.814V47.8137C35.0901 47.9961 35.1625 48.1709 35.2915 48.2998C35.4204 48.4288 35.5953 48.5012 35.7776 48.5012H37.0049C37.1367 48.9279 37.3037 49.3403 37.5098 49.7366L36.6477 50.6013C36.5188 50.7303 36.4464 50.9051 36.4464 51.0874C36.4464 51.2697 36.5188 51.4445 36.6477 51.5735L38.7693 53.6951C38.8982 53.824 39.0731 53.8964 39.2554 53.8964C39.4377 53.8964 39.6125 53.824 39.7415 53.6951L40.6062 52.8276C41.0021 53.035 41.4123 53.2049 41.8389 53.3379V54.5652C41.8389 54.7475 41.9113 54.9224 42.0403 55.0513C42.1692 55.1802 42.344 55.2527 42.5264 55.2527H45.5261C45.7085 55.2527 45.8833 55.1802 46.0122 55.0513C46.1412 54.9224 46.2136 54.7475 46.2136 54.5652V53.3352C46.6403 53.2032 47.0528 53.0363 47.449 52.8303L48.3137 53.6951C48.4427 53.824 48.6175 53.8964 48.7998 53.8964C48.9821 53.8964 49.157 53.824 49.2859 53.6951L51.4075 51.5735C51.5364 51.4445 51.6088 51.2697 51.6088 51.0874C51.6088 50.9051 51.5364 50.7303 51.4075 50.6013L50.54 49.7339C50.7473 49.338 50.9173 48.9279 51.0503 48.5012H52.2776C52.4599 48.5012 52.6348 48.4288 52.7637 48.2998C52.8926 48.1709 52.9651 47.9961 52.9651 47.8137V44.814C52.9651 44.6316 52.8926 44.4568 52.7637 44.3279C52.6348 44.1989 52.4599 44.1265 52.2776 44.1265H51.0476C50.9159 43.7002 50.7486 43.2897 50.5427 42.8938L51.4075 42.0291C51.5364 41.9001 51.6088 41.7253 51.6088 41.543C51.6088 41.3607 51.5364 41.1858 51.4075 41.0569L49.2859 38.9353C49.157 38.8064 48.9821 38.734 48.7998 38.734C48.6175 38.734 48.4427 38.8064 48.3137 38.9353L47.4463 39.8027C47.0503 39.5952 46.6404 39.4229 46.2136 39.2898V38.0652C46.2136 37.8829 46.1412 37.708 46.0122 37.5791C45.8833 37.4501 45.7085 37.3777 45.5261 37.3777H42.5264ZM43.2139 38.7527H44.8386V39.741C44.839 39.8964 44.892 40.0472 44.9891 40.1686C45.0861 40.2901 45.2215 40.375 45.373 40.4097C46.0376 40.5611 46.6729 40.8235 47.2502 41.1858C47.3819 41.2687 47.5377 41.3046 47.6923 41.2875C47.847 41.2705 47.9912 41.2015 48.1016 41.0918L48.7998 40.3936L49.9492 41.543L49.2537 42.2358C49.1436 42.3459 49.0741 42.49 49.0565 42.6446C49.0389 42.7992 49.0744 42.9553 49.157 43.0872C49.5178 43.6656 49.7782 44.2991 49.9277 44.9644C49.9619 45.1169 50.0471 45.2532 50.1691 45.3508C50.2912 45.4484 50.4428 45.5016 50.5991 45.5015H51.5901V47.1262H50.6018C50.4459 47.126 50.2945 47.1787 50.1725 47.2758C50.0505 47.3729 49.9651 47.5086 49.9304 47.6606C49.779 48.3252 49.5167 48.9606 49.1543 49.5378C49.0717 49.6697 49.0363 49.8258 49.0538 49.9804C49.0714 50.135 49.1409 50.2791 49.251 50.3892L49.9492 51.0874L48.7998 52.2368L48.1042 51.5413C47.9944 51.4318 47.8508 51.3627 47.6968 51.3452C47.5427 51.3276 47.3872 51.3626 47.2556 51.4446C46.6772 51.8052 46.0409 52.0657 45.3757 52.2153C45.2232 52.2495 45.0869 52.3347 44.9893 52.4567C44.8917 52.5788 44.8385 52.7304 44.8386 52.8867V53.8777H43.2139V52.8894C43.2141 52.7335 43.1614 52.5821 43.0642 52.4601C42.9671 52.3381 42.8315 52.2527 42.6794 52.218C42.0149 52.0666 41.3796 51.8042 40.8022 51.4419C40.6703 51.3593 40.5143 51.3239 40.3597 51.3414C40.205 51.359 40.0609 51.4285 39.9509 51.5386L39.2554 52.2368L38.106 51.0874L38.7988 50.3918C38.9087 50.2823 38.9783 50.1389 38.9963 49.9848C39.0144 49.8308 38.9798 49.6751 38.8982 49.5432C38.5374 48.9649 38.277 48.3284 38.1274 47.6633C38.0932 47.5108 38.0081 47.3745 37.8861 47.2769C37.764 47.1793 37.6123 47.1261 37.4561 47.1262H36.4651V45.5015H37.4534C37.6088 45.5011 37.7596 45.4481 37.881 45.351C38.0025 45.254 38.0874 45.1186 38.1221 44.967C38.2735 44.3025 38.5358 43.6671 38.8982 43.0898C38.9811 42.9582 39.017 42.8024 38.9999 42.6478C38.9829 42.4931 38.9139 42.3489 38.8042 42.2385L38.106 41.543L39.2554 40.3936L39.9482 41.0864C40.0579 41.1969 40.2019 41.2669 40.3565 41.285C40.5112 41.303 40.6674 41.2681 40.7996 41.1858C41.378 40.825 42.0116 40.5645 42.6768 40.415C42.8293 40.3808 42.9656 40.2957 43.0632 40.1737C43.1608 40.0516 43.214 39.8999 43.2139 39.7437V38.7527ZM44.0276 42.8777C42.1409 42.8777 40.5901 44.4257 40.5901 46.3125C40.5901 48.1991 42.1404 49.7527 44.0276 49.7527C45.9147 49.7527 47.4624 48.1991 47.4624 46.3125C47.4624 44.4257 45.9142 42.8777 44.0276 42.8777ZM44.0276 44.2527C45.1633 44.2527 46.0874 45.1766 46.0874 46.3125C46.0874 47.4481 45.1628 48.3777 44.0276 48.3777C42.8923 48.3777 41.9651 47.4481 41.9651 46.3125C41.9651 45.1766 42.8918 44.2527 44.0276 44.2527Z" fill="#68CA58"/>
</svg>
