<svg width="73" height="72" viewBox="0 0 73 72" fill="none" xmlns="http://www.w3.org/2000/svg">
<circle cx="36.8105" cy="36" r="36" fill="#FDE404" fill-opacity="0.2"/>
<path fill-rule="evenodd" clip-rule="evenodd" d="M34.6255 14.75C30.4704 14.75 27.0898 18.1451 27.0898 22.3125C27.0899 26.4798 30.4704 29.875 34.6255 29.875C38.7805 29.875 42.1611 26.4798 42.1611 22.3125C42.1612 18.1451 38.7806 14.75 34.6255 14.75ZM34.6255 16.125C38.0345 16.125 40.7862 18.8853 40.7861 22.3125C40.7861 25.7397 38.0344 28.5 34.6255 28.5C31.2165 28.5 28.4649 25.7397 28.4648 22.3125C28.4648 18.8853 31.2165 16.125 34.6255 16.125ZM52.6697 22.6294C52.4873 22.6294 52.3125 22.7019 52.1836 22.8308C52.0546 22.9597 51.9822 23.1346 51.9822 23.3169V24.0205C51.7839 24.0893 51.591 24.1659 51.4021 24.2568L50.9053 23.7627C50.7763 23.6338 50.6015 23.5614 50.4192 23.5614C50.2369 23.5614 50.062 23.6338 49.9331 23.7627L48.4749 25.2209C48.346 25.3499 48.2736 25.5247 48.2736 25.707C48.2736 25.8893 48.346 26.0642 48.4749 26.1931L48.9717 26.6899C48.8799 26.8791 48.7988 27.0713 48.73 27.27H48.0291C47.8467 27.27 47.6719 27.3425 47.5429 27.4714C47.414 27.6003 47.3416 27.7752 47.3416 27.9575V30.02C47.3416 30.2024 47.414 30.3772 47.5429 30.5061C47.6719 30.6351 47.8467 30.7075 48.0291 30.7075H48.7327C48.8007 30.9058 48.8781 31.0987 48.969 31.2876L48.4749 31.7844C48.346 31.9134 48.2736 32.0882 48.2736 32.2705C48.2736 32.4528 48.346 32.6277 48.4749 32.7566L49.9331 34.2148C50.062 34.3437 50.2369 34.4161 50.4192 34.4161C50.6015 34.4161 50.7763 34.3437 50.9053 34.2148L51.4021 33.718C51.591 33.8101 51.7838 33.8884 51.9822 33.957V34.6606C51.9822 34.843 52.0546 35.0178 52.1836 35.1468C52.3125 35.2757 52.4873 35.3481 52.6697 35.3481H54.7322C54.9145 35.3481 55.0894 35.2757 55.2183 35.1468C55.3472 35.0178 55.4197 34.843 55.4197 34.6606V33.957C55.6183 33.8883 55.8106 33.8092 55.9998 33.718L56.4966 34.2148C56.6255 34.3437 56.8004 34.4161 56.9827 34.4161C57.165 34.4161 57.3398 34.3437 57.4688 34.2148L58.927 32.7566C59.0559 32.6277 59.1283 32.4528 59.1283 32.2705C59.1283 32.0882 59.0559 31.9134 58.927 31.7844L58.4302 31.2876C58.5219 31.0983 58.6031 30.9062 58.6719 30.7075H59.3728C59.5551 30.7075 59.73 30.6351 59.8589 30.5061C59.9878 30.3772 60.0603 30.2024 60.0603 30.02V27.9575C60.0603 27.7752 59.9878 27.6003 59.8589 27.4714C59.73 27.3425 59.5551 27.27 59.3728 27.27H58.6692C58.601 27.0715 58.5213 26.8791 58.4302 26.6899L58.927 26.1931C59.0559 26.0642 59.1283 25.8893 59.1283 25.707C59.1283 25.5247 59.0559 25.3499 58.927 25.2209L57.4688 23.7627C57.3398 23.6338 57.165 23.5614 56.9827 23.5614C56.8004 23.5614 56.6255 23.6338 56.4966 23.7627L55.9998 24.2595C55.8105 24.1674 55.6184 24.0866 55.4197 24.0178V23.3169C55.4197 23.1346 55.3472 22.9597 55.2183 22.8308C55.0894 22.7019 54.9145 22.6294 54.7322 22.6294H52.6697ZM53.3572 24.0044H54.0447V24.469C54.0444 24.6249 54.0972 24.7763 54.1943 24.8983C54.2914 25.0203 54.4271 25.1057 54.5791 25.1404C55.0125 25.2394 55.4273 25.4089 55.8037 25.6453C55.9356 25.7279 56.0916 25.7633 56.2463 25.7457C56.4009 25.7282 56.545 25.6587 56.655 25.5486L56.9827 25.2209L57.4688 25.707L57.1411 26.032C57.031 26.142 56.9615 26.2861 56.944 26.4407C56.9264 26.5954 56.9618 26.7514 57.0444 26.8833C57.2797 27.2606 57.4518 27.6741 57.5493 28.1079C57.5834 28.26 57.6682 28.3959 57.7896 28.4935C57.9111 28.5911 58.0622 28.6445 58.218 28.645H58.6853V29.3325H58.2207C58.0648 29.3323 57.9134 29.385 57.7914 29.4821C57.6694 29.5792 57.584 29.7149 57.5493 29.8669C57.4506 30.3002 57.2807 30.7151 57.0444 31.0916C56.9618 31.2234 56.9264 31.3795 56.944 31.5341C56.9615 31.6888 57.031 31.8329 57.1411 31.9429L57.4688 32.2705L56.9827 32.7566L56.6577 32.429C56.5477 32.3189 56.4036 32.2494 56.249 32.2318C56.0943 32.2142 55.9383 32.2497 55.8064 32.3323C55.4292 32.5675 55.0155 32.737 54.5818 32.8345C54.4293 32.8687 54.293 32.9538 54.1953 33.0759C54.0977 33.1979 54.0446 33.3496 54.0447 33.5059V33.9731H53.3572V33.5085C53.3574 33.3526 53.3047 33.2012 53.2076 33.0792C53.1105 32.9573 52.9748 32.8719 52.8228 32.8372C52.3894 32.7382 51.9746 32.5686 51.5981 32.3323C51.4665 32.2493 51.3107 32.2135 51.1561 32.2305C51.0014 32.2476 50.8572 32.3166 50.7468 32.4263L50.4192 32.7539L49.9331 32.2678L50.2607 31.9402C50.3702 31.8304 50.4393 31.6868 50.4568 31.5327C50.4744 31.3787 50.4394 31.2232 50.3574 31.0916C50.1221 30.7144 49.9501 30.3008 49.8525 29.8669C49.8184 29.7149 49.7337 29.5789 49.6122 29.4813C49.4907 29.3838 49.3397 29.3303 49.1838 29.3298H48.7166V28.6423H49.1812C49.3371 28.6426 49.4885 28.5898 49.6104 28.4927C49.7324 28.3956 49.8178 28.2599 49.8525 28.1079C49.9513 27.6746 50.1211 27.2598 50.3574 26.8833C50.44 26.7514 50.4755 26.5954 50.4579 26.4407C50.4403 26.2861 50.3708 26.142 50.2607 26.032L49.9331 25.7043L50.4192 25.2183L50.7441 25.5432C50.8538 25.6537 50.9978 25.7237 51.1524 25.7418C51.3071 25.7598 51.4633 25.7249 51.5955 25.6426C51.9726 25.4073 52.3864 25.2352 52.8201 25.1377C52.9721 25.1036 53.1081 25.0189 53.2057 24.8974C53.3033 24.7759 53.3567 24.6248 53.3572 24.469V24.0044ZM53.7009 26.7249C52.4594 26.7249 51.437 27.7471 51.437 28.9888C51.437 30.2303 52.459 31.2527 53.7009 31.2527C54.9428 31.2527 55.9648 30.2303 55.9648 28.9888C55.9648 27.7471 54.9424 26.7249 53.7009 26.7249ZM53.7009 28.0999C54.1914 28.0999 54.5898 28.4982 54.5898 28.9888C54.5898 29.4792 54.1911 29.8777 53.7009 29.8777C53.2108 29.8777 52.812 29.4792 52.812 28.9888C52.812 28.4982 53.2104 28.0999 53.7009 28.0999ZM30.5273 31.25C24.8244 31.25 20.2148 35.8813 20.2148 41.6028V47.8118C20.2149 48.1915 20.5227 48.4993 20.9023 48.4993H26.2009C26.3322 48.5395 26.4725 48.5395 26.6038 48.4993H38.2268C38.3088 48.2505 38.4308 48.0139 38.6028 47.8037C38.0686 47.7501 37.584 47.498 37.2385 47.1243H27.0898V41.5947C27.0913 41.5026 27.0742 41.4112 27.0396 41.3258C27.005 41.2405 26.9537 41.1629 26.8885 41.0978C26.8234 41.0327 26.7459 40.9813 26.6605 40.9467C26.5751 40.9121 26.4837 40.895 26.3916 40.8965C26.3013 40.8979 26.2122 40.9171 26.1293 40.9529C26.0464 40.9888 25.9715 41.0406 25.9086 41.1054C25.8458 41.1703 25.7963 41.2469 25.7631 41.3308C25.7298 41.4148 25.7134 41.5044 25.7148 41.5947V47.1243H21.5898V41.6028C21.5898 36.6162 25.5653 32.625 30.5273 32.625H38.7773C40.8465 32.625 42.7385 33.3262 44.2478 34.4968C44.5918 34.1917 45.0323 34 45.5261 34H45.7651C43.9279 32.2971 41.4797 31.25 38.7773 31.25H30.5273ZM45.5261 35.3777C45.3438 35.3777 45.1689 35.4501 45.04 35.5791C44.9111 35.708 44.8386 35.8829 44.8386 36.0652V37.2925C44.412 37.4245 44.0021 37.5939 43.606 37.8L42.7412 36.9353C42.6123 36.8064 42.4374 36.734 42.2551 36.734C42.0728 36.734 41.898 36.8064 41.769 36.9353L39.6475 39.0569C39.5186 39.1858 39.4462 39.3607 39.4462 39.543C39.4462 39.7253 39.5186 39.9001 39.6475 40.0291L40.5122 40.8938C40.305 41.2895 40.1349 41.7001 40.002 42.1265H38.7773C38.595 42.1265 38.4202 42.1989 38.2912 42.3279C38.1623 42.4568 38.0899 42.6316 38.0898 42.814V45.8137C38.0899 45.9961 38.1623 46.1709 38.2912 46.2998C38.4202 46.4288 38.595 46.5012 38.7773 46.5012H40.0046C40.1364 46.9279 40.3035 47.3403 40.5095 47.7366L39.6475 48.6013C39.5186 48.7303 39.4462 48.9051 39.4462 49.0874C39.4462 49.2697 39.5186 49.4445 39.6475 49.5735L41.769 51.6951C41.898 51.824 42.0728 51.8964 42.2551 51.8964C42.4374 51.8964 42.6123 51.824 42.7412 51.6951L43.606 50.8276C44.0018 51.035 44.412 51.2049 44.8386 51.3379V52.5652C44.8386 52.7475 44.9111 52.9224 45.04 53.0513C45.1689 53.1802 45.3438 53.2527 45.5261 53.2527H48.5259C48.7082 53.2527 48.8831 53.1802 49.012 53.0513C49.1409 52.9224 49.2134 52.7475 49.2134 52.5652V51.3352C49.6401 51.2032 50.0525 51.0363 50.4487 50.8303L51.3135 51.6951C51.4424 51.824 51.6173 51.8964 51.7996 51.8964C51.9819 51.8964 52.1567 51.824 52.2856 51.6951L54.4072 49.5735C54.5361 49.4445 54.6085 49.2697 54.6085 49.0874C54.6085 48.9051 54.5361 48.7303 54.4072 48.6013L53.5398 47.7339C53.7471 47.338 53.917 46.9279 54.05 46.5012H55.2773C55.4597 46.5012 55.6345 46.4288 55.7635 46.2998C55.8924 46.1709 55.9648 45.9961 55.9648 45.8137V42.814C55.9648 42.6316 55.8924 42.4568 55.7635 42.3279C55.6345 42.1989 55.4597 42.1265 55.2773 42.1265H54.0474C53.9156 41.7002 53.7483 41.2897 53.5425 40.8938L54.4072 40.0291C54.5361 39.9001 54.6085 39.7253 54.6085 39.543C54.6085 39.3607 54.5361 39.1858 54.4072 39.0569L52.2856 36.9353C52.1567 36.8064 51.9819 36.734 51.7996 36.734C51.6173 36.734 51.4424 36.8064 51.3135 36.9353L50.446 37.8027C50.05 37.5952 49.6401 37.4229 49.2134 37.2898V36.0652C49.2134 35.8829 49.1409 35.708 49.012 35.5791C48.8831 35.4501 48.7082 35.3777 48.5259 35.3777H45.5261ZM46.2136 36.7527H47.8384V37.741C47.8387 37.8964 47.8918 38.0472 47.9888 38.1686C48.0859 38.2901 48.2212 38.375 48.3728 38.4097C49.0374 38.5611 49.6727 38.8235 50.25 39.1858C50.3816 39.2687 50.5375 39.3046 50.6921 39.2875C50.8467 39.2705 50.991 39.2015 51.1013 39.0918L51.7996 38.3936L52.949 39.543L52.2534 40.2358C52.1433 40.3459 52.0738 40.49 52.0563 40.6446C52.0387 40.7992 52.0741 40.9553 52.1567 41.0872C52.5175 41.6656 52.7779 42.2991 52.9275 42.9644C52.9617 43.1169 53.0468 43.2532 53.1689 43.3508C53.2909 43.4484 53.4426 43.5016 53.5989 43.5015H54.5898V45.1262H53.6016C53.4456 45.126 53.2943 45.1787 53.1723 45.2758C53.0503 45.3729 52.9649 45.5086 52.9302 45.6606C52.7787 46.3252 52.5164 46.9606 52.1541 47.5378C52.0714 47.6697 52.036 47.8258 52.0536 47.9804C52.0711 48.135 52.1406 48.2791 52.2507 48.3892L52.949 49.0874L51.7996 50.2368L51.104 49.5413C50.9942 49.4318 50.8506 49.3627 50.6965 49.3452C50.5425 49.3276 50.387 49.3626 50.2554 49.4446C49.6769 49.8052 49.0406 50.0657 48.3755 50.2153C48.223 50.2495 48.0867 50.3347 47.989 50.4567C47.8914 50.5788 47.8383 50.7304 47.8384 50.8867V51.8777H46.2136V50.8894C46.2139 50.7335 46.1611 50.5821 46.064 50.4601C45.9669 50.3381 45.8312 50.2527 45.6792 50.218C45.0146 50.0666 44.3793 49.8042 43.802 49.4419C43.6701 49.3593 43.5141 49.3239 43.3594 49.3414C43.2048 49.359 43.0607 49.4285 42.9507 49.5386L42.2551 50.2368L41.1057 49.0874L41.7986 48.3918C41.9084 48.2823 41.9781 48.1389 41.9961 47.9848C42.0141 47.8308 41.9795 47.6751 41.8979 47.5432C41.5371 46.9649 41.2767 46.3284 41.1272 45.6633C41.093 45.5108 41.0079 45.3745 40.8858 45.2769C40.7638 45.1793 40.6121 45.1261 40.4558 45.1262H39.4648V43.5015H40.4531C40.6086 43.5011 40.7593 43.4481 40.8808 43.351C41.0022 43.254 41.0872 43.1186 41.1218 42.967C41.2733 42.3025 41.5356 41.6671 41.8979 41.0898C41.9809 40.9582 42.0168 40.8024 41.9997 40.6478C41.9826 40.4931 41.9136 40.3489 41.804 40.2385L41.1057 39.543L42.2551 38.3936L42.948 39.0864C43.0577 39.1969 43.2016 39.2669 43.3563 39.285C43.5109 39.303 43.6671 39.2681 43.7993 39.1858C44.3778 38.825 45.0114 38.5645 45.6765 38.415C45.829 38.3808 45.9653 38.2957 46.063 38.1737C46.1606 38.0516 46.2137 37.8999 46.2136 37.7437V36.7527ZM47.0273 40.8777C45.1407 40.8777 43.5898 42.4257 43.5898 44.3125C43.5898 46.1991 45.1402 47.7527 47.0273 47.7527C48.9145 47.7527 50.4622 46.1991 50.4622 44.3125C50.4622 42.4257 48.914 40.8777 47.0273 40.8777ZM47.0273 42.2527C48.1631 42.2527 49.0872 43.1766 49.0872 44.3125C49.0872 45.4481 48.1626 46.3777 47.0273 46.3777C45.8921 46.3777 44.9648 45.4481 44.9648 44.3125C44.9648 43.1766 45.8916 42.2527 47.0273 42.2527Z" fill="#FFAB07"/>
</svg>
