<svg width="72" height="72" viewBox="0 0 72 72" fill="none" xmlns="http://www.w3.org/2000/svg">
<path d="M72 36C72 55.8823 55.8823 72 36 72C16.1177 72 0 55.8823 0 36C0 16.1177 16.1177 0 36 0C55.8823 0 72 16.1177 72 36Z" fill="#EA5455" fill-opacity="0.2"/>
<path d="M33.5391 21.0752C31.2717 21.0752 29.0553 21.7475 27.1701 23.0072C25.2849 24.2669 23.8155 26.0573 22.9478 28.152C22.0802 30.2468 21.8531 32.5518 22.2955 34.7756C22.7378 36.9993 23.8296 39.042 25.4329 40.6452C27.0361 42.2485 29.0788 43.3403 31.3026 43.7827C33.5263 44.225 35.8313 43.998 37.9261 43.1303C40.0208 42.2626 41.8113 40.7933 43.0709 38.908C44.3306 37.0228 45.0029 34.8064 45.0029 32.5391C44.9994 29.4997 43.7905 26.5859 41.6414 24.4367C39.4923 22.2876 36.5784 21.0787 33.5391 21.0752ZM33.5391 42.7842C31.5128 42.7842 29.532 42.1833 27.8472 41.0576C26.1624 39.9318 24.8492 38.3317 24.0738 36.4597C23.2984 34.5876 23.0955 32.5277 23.4908 30.5403C23.8861 28.553 24.8619 26.7275 26.2947 25.2947C27.7275 23.8619 29.553 22.8861 31.5403 22.4908C33.5277 22.0955 35.5876 22.2984 37.4597 23.0738C39.3317 23.8492 40.9318 25.1624 42.0576 26.8472C43.1833 28.532 43.7842 30.5128 43.7842 32.5391C43.7811 35.2553 42.7007 37.8594 40.7801 39.7801C38.8594 41.7007 36.2553 42.7811 33.5391 42.7842Z" fill="#EA5455"/>
<path d="M36.3955 26.2168H30.6826C30.521 26.2168 30.366 26.281 30.2517 26.3953C30.1374 26.5096 30.0732 26.6646 30.0732 26.8262C30.0732 26.9878 30.1374 27.1428 30.2517 27.2571C30.366 27.3713 30.521 27.4355 30.6826 27.4355H35.7861V31.9297H32.5869C32.4253 31.9297 32.2703 31.9939 32.156 32.1082C32.0417 32.2224 31.9775 32.3774 31.9775 32.5391V34.4434C31.9775 34.605 32.0417 34.76 32.156 34.8743C32.2703 34.9885 32.4253 35.0527 32.5869 35.0527C32.7485 35.0527 32.9035 34.9885 33.0178 34.8743C33.1321 34.76 33.1963 34.605 33.1963 34.4434V33.1484H36.3955C36.5571 33.1484 36.7121 33.0842 36.8264 32.97C36.9407 32.8557 37.0049 32.7007 37.0049 32.5391V26.8262C37.0049 26.6646 36.9407 26.5096 36.8264 26.3953C36.7121 26.281 36.5571 26.2168 36.3955 26.2168ZM32.5869 36.3732C32.3409 36.3732 32.1003 36.4462 31.8957 36.5829C31.6911 36.7196 31.5317 36.9139 31.4375 37.1413C31.3434 37.3686 31.3188 37.6188 31.3668 37.8601C31.4148 38.1014 31.5333 38.3231 31.7074 38.4971C31.8814 38.671 32.1031 38.7895 32.3444 38.8375C32.5857 38.8854 32.8359 38.8607 33.0632 38.7665C33.2905 38.6723 33.4848 38.5128 33.6214 38.3082C33.7581 38.1036 33.831 37.863 33.831 37.617C33.8305 37.2872 33.6993 36.9711 33.466 36.7379C33.2328 36.5048 32.9167 36.3736 32.5869 36.3732Z" fill="#EA5455"/>
<path d="M55.4242 49.2534L48.5301 42.3593C48.3013 42.1311 47.9913 42.0029 47.6682 42.0029C47.3451 42.0029 47.0351 42.1311 46.8064 42.3593L45.5136 43.6522L44.0809 42.2192C46.617 39.4566 47.9698 35.8104 47.8495 32.0622C47.7291 28.314 46.1451 24.7621 43.4371 22.1679C40.729 19.5737 37.1124 18.1436 33.3625 18.1843C29.6125 18.2249 26.0278 19.733 23.3766 22.3853C20.7254 25.0377 19.2188 28.6231 19.1797 32.373C19.1407 36.123 20.5722 39.739 23.1676 42.4459C25.763 45.1529 29.3155 46.7354 33.0638 46.8541C36.8121 46.9729 40.4577 45.6185 43.2192 43.0812L44.6519 44.5142L43.3593 45.807C43.131 46.0357 43.0029 46.3456 43.0029 46.6687C43.0029 46.9918 43.131 47.3017 43.3593 47.5304L50.2534 54.4242C50.3666 54.5374 50.501 54.6272 50.6488 54.6884C50.7967 54.7497 50.9552 54.7812 51.1153 54.7812C51.2753 54.7812 51.4338 54.7497 51.5817 54.6884C51.7296 54.6272 51.8639 54.5374 51.9771 54.4242L55.4236 50.9774C55.5369 50.8643 55.6268 50.73 55.6882 50.5821C55.7496 50.4342 55.7812 50.2757 55.7813 50.1155C55.7813 49.9554 55.7498 49.7969 55.6885 49.6489C55.6273 49.501 55.5375 49.3666 55.4242 49.2534ZM20.4375 32.5391C20.4375 29.9478 21.2059 27.4148 22.6455 25.2602C24.0851 23.1057 26.1313 21.4264 28.5253 20.4348C30.9193 19.4432 33.5536 19.1837 36.0951 19.6892C38.6365 20.1948 40.971 21.4426 42.8033 23.2749C44.6356 25.1071 45.8834 27.4416 46.3889 29.9831C46.8944 32.5245 46.635 35.1588 45.6433 37.5528C44.6517 39.9468 42.9724 41.993 40.8179 43.4326C38.6634 44.8722 36.1303 45.6406 33.5391 45.6406C30.0655 45.6367 26.7353 44.2551 24.2792 41.799C21.823 39.3428 20.4414 36.0126 20.4375 32.5391ZM51.1154 53.5625L44.221 46.6683L47.6683 43.221L54.5619 50.1157L51.1154 53.5625ZM54.5628 50.1151L54.5634 50.1139L54.9933 50.546L54.5628 50.1151Z" fill="#EA5455"/>
</svg>
