<svg width="72" height="72" viewBox="0 0 72 72" fill="none" xmlns="http://www.w3.org/2000/svg">
<path d="M72 36C72 55.8823 55.8823 72 36 72C16.1177 72 0 55.8823 0 36C0 16.1177 16.1177 0 36 0C55.8823 0 72 16.1177 72 36Z" fill="#7367F0" fill-opacity="0.2"/>
<path d="M49.75 18.8125H22.25C20.3546 18.8125 18.8125 20.3546 18.8125 22.25V49.75C18.8125 51.6454 20.3546 53.1875 22.25 53.1875H49.75C51.6454 53.1875 53.1875 51.6454 53.1875 49.75V22.25C53.1875 20.3546 51.6454 18.8125 49.75 18.8125ZM51.8125 49.75C51.8125 50.8871 50.8871 51.8125 49.75 51.8125H22.25C21.1129 51.8125 20.1875 50.8871 20.1875 49.75V22.25C20.1875 21.1129 21.1129 20.1875 22.25 20.1875H49.75C50.8871 20.1875 51.8125 21.1129 51.8125 22.25V49.75Z" fill="#7367F0"/>
<path d="M48.2918 30.0139C48.034 29.7561 47.5775 29.7561 47.3197 30.0139L35.6521 41.6815C35.5765 41.7564 35.5201 41.8486 35.4858 41.9503L34.5136 44.8667C34.4311 45.1135 34.4958 45.3864 34.68 45.57C34.8106 45.7006 34.9866 45.7714 35.1661 45.7714C35.2389 45.7714 35.3118 45.7598 35.3833 45.7357L38.2997 44.7636C38.4008 44.7299 38.4929 44.6728 38.5685 44.5979L50.2361 32.9303C50.3653 32.8018 50.4375 32.6264 50.4375 32.4442C50.4375 32.2621 50.3653 32.0868 50.2361 31.9582L48.2918 30.0139ZM37.7112 43.5109L36.253 43.997L36.7391 42.5388L47.8058 31.4721L48.7779 32.4442L37.7112 43.5109ZM25 25.6875H47C47.3802 25.6875 47.6875 25.3795 47.6875 25C47.6875 24.6205 47.3802 24.3125 47 24.3125H25C24.6205 24.3125 24.3125 24.6205 24.3125 25C24.3125 25.3795 24.6205 25.6875 25 25.6875ZM25 29.8125H44.25C44.6302 29.8125 44.9375 29.5045 44.9375 29.125C44.9375 28.7455 44.6302 28.4375 44.25 28.4375H25C24.6205 28.4375 24.3125 28.7455 24.3125 29.125C24.3125 29.5045 24.6205 29.8125 25 29.8125ZM25 33.9375H40.125C40.5052 33.9375 40.8125 33.6295 40.8125 33.25C40.8125 32.8705 40.5052 32.5625 40.125 32.5625H25C24.6205 32.5625 24.3125 32.8705 24.3125 33.25C24.3125 33.6295 24.6205 33.9375 25 33.9375ZM25 38.0625H36C36.3795 38.0625 36.6875 37.7552 36.6875 37.375C36.6875 36.9948 36.3795 36.6875 36 36.6875H25C24.6205 36.6875 24.3125 36.9948 24.3125 37.375C24.3125 37.7552 24.6205 38.0625 25 38.0625ZM33.25 40.8125H25C24.6205 40.8125 24.3125 41.1198 24.3125 41.5C24.3125 41.8802 24.6205 42.1875 25 42.1875H33.25C33.6295 42.1875 33.9375 41.8802 33.9375 41.5C33.9375 41.1198 33.6295 40.8125 33.25 40.8125ZM31.875 44.9375H25C24.6205 44.9375 24.3125 45.2448 24.3125 45.625C24.3125 46.0052 24.6205 46.3125 25 46.3125H31.875C32.2545 46.3125 32.5625 46.0052 32.5625 45.625C32.5625 45.2448 32.2545 44.9375 31.875 44.9375Z" fill="#7367F0"/>
</svg>
