<svg width="67" height="10" viewBox="0 0 67 10" fill="none" xmlns="http://www.w3.org/2000/svg">
<g clip-path="url(#clip0_454_856)">
<path d="M5.20308 9.75553C5.36425 10.0815 5.86089 10.0815 6.02207 9.75552L7.34166 7.08678C7.40739 6.95392 7.54232 6.86245 7.6981 6.84523L10.8267 6.49919C11.2089 6.45693 11.3623 6.01632 11.0798 5.77259L8.76675 3.77717C8.65158 3.67788 8.60005 3.52981 8.6306 3.38637L9.24459 0.50375C9.31957 0.151625 8.91783 -0.120687 8.58203 0.0546875L5.83284 1.49019C5.69598 1.56163 5.52916 1.56163 5.39231 1.49019L2.64313 0.0546875C2.30734 -0.120687 1.90555 0.151625 1.98055 0.50375L2.59456 3.38637C2.62513 3.52981 2.57357 3.67788 2.45842 3.77717L0.145328 5.77259C-0.137198 6.01632 0.016272 6.45693 0.398412 6.49919L3.52707 6.84523C3.68282 6.86245 3.81778 6.95392 3.88347 7.08678L5.20308 9.75553Z" fill="#FD8C04"/>
<path d="M19.1084 9.75553C19.2696 10.0815 19.7662 10.0815 19.9274 9.75552L21.2469 7.08678C21.3127 6.95392 21.4476 6.86245 21.6034 6.84523L24.732 6.49919C25.1142 6.45693 25.2676 6.01632 24.9851 5.77259L22.672 3.77717C22.5569 3.67788 22.5053 3.52981 22.5359 3.38637L23.1499 0.50375C23.2248 0.151625 22.8231 -0.120687 22.4873 0.0546875L19.7381 1.49019C19.6013 1.56163 19.4345 1.56163 19.2976 1.49019L16.5484 0.0546875C16.2126 -0.120687 15.8108 0.151625 15.8858 0.50375L16.4999 3.38637C16.5304 3.52981 16.4789 3.67788 16.3637 3.77717L14.0506 5.77259C13.7681 6.01632 13.9216 6.45693 14.3037 6.49919L17.4324 6.84523C17.5881 6.86245 17.7231 6.95392 17.7887 7.08678L19.1084 9.75553Z" fill="#FD8C04"/>
<path d="M33.0132 9.75553C33.1744 10.0815 33.671 10.0815 33.8322 9.75552L35.1517 7.08678C35.2174 6.95392 35.3524 6.86245 35.5082 6.84523L38.6368 6.49919C39.019 6.45693 39.1724 6.01632 38.8899 5.77259L36.5768 3.77717C36.4616 3.67788 36.4101 3.52981 36.4407 3.38637L37.0547 0.50375C37.1297 0.151625 36.7279 -0.120687 36.3921 0.0546875L33.6429 1.49019C33.5061 1.56163 33.3392 1.56163 33.2024 1.49019L30.4532 0.0546875C30.1174 -0.120687 29.7156 0.151625 29.7907 0.50375L30.4046 3.38637C30.4352 3.52981 30.3837 3.67788 30.2685 3.77717L27.9554 5.77259C27.6728 6.01632 27.8263 6.45693 28.2085 6.49919L31.3371 6.84523C31.4929 6.86245 31.6279 6.95392 31.6935 7.08678L33.0132 9.75553Z" fill="#FD8C04"/>
<path d="M46.9184 9.75553C47.0796 10.0815 47.5762 10.0815 47.7374 9.75552L49.057 7.08678C49.1227 6.95392 49.2577 6.86245 49.4134 6.84523L52.5421 6.49919C52.9242 6.45693 53.0777 6.01632 52.7952 5.77259L50.4821 3.77717C50.3669 3.67788 50.3154 3.52981 50.3459 3.38637L50.9599 0.50375C51.035 0.151625 50.6332 -0.120687 50.2974 0.0546875L47.5482 1.49019C47.4113 1.56163 47.2445 1.56163 47.1076 1.49019L44.3585 0.0546875C44.0227 -0.120687 43.6209 0.151625 43.6959 0.50375L44.3099 3.38637C44.3405 3.52981 44.2889 3.67788 44.1738 3.77717L41.8607 5.77259C41.5781 6.01632 41.7316 6.45693 42.1138 6.49919L45.2424 6.84523C45.3982 6.86245 45.5331 6.95392 45.5988 7.08678L46.9184 9.75553Z" fill="#FD8C04"/>
<path d="M60.8237 9.75553C60.9849 10.0815 61.4815 10.0815 61.6427 9.75552L62.9623 7.08678C63.028 6.95392 63.1629 6.86245 63.3187 6.84523L66.4473 6.49919C66.8295 6.45693 66.9829 6.01632 66.7004 5.77259L64.3873 3.77717C64.2722 3.67788 64.2206 3.52981 64.2512 3.38637L64.8652 0.50375C64.9402 0.151625 64.5384 -0.120687 64.2026 0.0546875L61.4535 1.49019C61.3166 1.56163 61.1498 1.56163 61.0129 1.49019L58.2637 0.0546875C57.9279 -0.120687 57.5261 0.151625 57.6012 0.50375L58.2152 3.38637C58.2457 3.52981 58.1942 3.67788 58.079 3.77717L55.7659 5.77259C55.4834 6.01632 55.6369 6.45693 56.019 6.49919L59.1477 6.84523C59.3034 6.86245 59.4384 6.95392 59.504 7.08678L60.8237 9.75553Z" fill="#FD8C04"/>
</g>
<defs>
<clipPath id="clip0_454_856">
<rect width="67" height="10" fill="white" transform="matrix(1 0 0 -1 0 10)"/>
</clipPath>
</defs>
</svg>
